<svg id="_9._Icons_Language" data-name="9. Icons / Language" xmlns="http://www.w3.org/2000/svg" width="24" height="24" viewBox="0 0 24 24">
  <path id="Path" d="M16.837,6.881H3.934L8.989,1.939a1.123,1.123,0,0,0,0-1.607,1.184,1.184,0,0,0-1.644,0L.338,7.181A1.12,1.12,0,0,0,0,8c0,.007,0,.012,0,.017H0c0,.008.005.017.005.027a1.14,1.14,0,0,0,.085.408,1.162,1.162,0,0,0,.145.214,1.151,1.151,0,0,0,.1.152l7.007,6.849a1.186,1.186,0,0,0,1.644,0,1.123,1.123,0,0,0,0-1.607L3.969,9.154H16.837a1.137,1.137,0,1,0,0-2.273" transform="translate(2.771 3.744)" fill="#572589"/>
</svg>
